<?xml version="1.0" encoding="UTF-8"?>
<svg id="_Слой_1" data-name="Слой_1" xmlns="http://www.w3.org/2000/svg" version="1.1" viewBox="0 0 100 100">
  <!-- Generator: Adobe Illustrator 29.8.3, SVG Export Plug-In . SVG Version: 2.1.1 Build 3)  -->
  <defs>
    <style>
      .st0 {
        fill: #524edd;
      }
    </style>
  </defs>
  <path class="st0" d="M85.34,20.4l-27.38-15.81c-4.93-2.84-11-2.84-15.92,0l-27.38,15.81c-4.93,2.84-7.96,8.1-7.96,13.79v31.61c0,5.69,3.03,10.94,7.96,13.79l27.38,15.81c4.93,2.84,11,2.84,15.92,0l27.38-15.81c4.93-2.84,7.96-8.1,7.96-13.79v-31.61c0-5.69-3.03-10.94-7.96-13.79ZM59.72,71.23c0,1.1-.9,2-2,2h-29.55c-1.1,0-2-.9-2-2v-5.67c0-1.1.9-2,2-2h29.55c1.1,0,2,.9,2,2v5.67ZM65.72,53.23c0,1.1-.9,2-2,2h-29.55c-1.1,0-2-.9-2-2v-5.67c0-1.1.9-2,2-2h29.55c1.1,0,2,.9,2,2v5.67ZM71.72,35.23c0,1.1-.9,2-2,2h-29.55c-1.1,0-2-.9-2-2v-5.67c0-1.1.9-2,2-2h29.55c1.1,0,2,.9,2,2v5.67Z"/>
</svg>